<svg xmlns="http://www.w3.org/2000/svg" xmlns:xlink="http://www.w3.org/1999/xlink" height="512" style="" version="1.1" width="512" xml:space="preserve"><rect id="backgroundrect" width="100%" height="100%" x="0" y="0" fill="none" stroke="none"/><g class="currentLayer" style=""><title>Layer 1</title><g id="_x39_6_x2C__moustache_x2C__Hipster_x2C__movember_x2C__santa_Clause_x2C__Hat" class="selected" fill-opacity="1" fill="#cccccc"><g id="svg_1" fill="#cccccc"><path d="M259.046,419.596c0.125,18.947,11.345,34.576,27.171,44.632l0.619,0.396    c4.087,2.526,8.471,4.706,13.029,6.465c8.842,3.418,18.354,5.324,27.814,5.424c9.387,0.123,18.75-1.511,27.27-5.177    c18.007-7.753,32.422-24.693,36.039-53.425c-14.938,24.916-26.948,29.301-37.871,23.728c-8.992-4.582-16.521-16.1-24.424-28.186    c-9.41-14.366-19.366-29.574-31.651-32.646c-2.032-0.52-4.038-0.742-5.994-0.742c-7.109,0.049-13.771,3.442-19.122,8.692    c-5.523,5.4-9.66,12.757-11.616,20.608C259.467,412.759,259.021,416.227,259.046,419.596 M281.313,468.265    c-11.642-7.802-20.805-18.502-25.313-31.258c-4.508,12.756-13.673,23.456-25.314,31.258c1.785,4.904,4.929,9.14,8.991,12.235    c4.508,3.443,10.179,5.499,16.323,5.499c6.142,0,11.814-2.056,16.322-5.499C276.385,477.404,279.529,473.169,281.313,468.265z     M256.149,283.468c39.653-0.197,75.517-3.813,101.476-9.535c24.619-5.424,39.852-12.235,39.827-19.171    c-0.024-3.839-5.399-7.803-14.837-11.592c-10.773-4.31-26.452-8-45.449-10.699c-27.195,3.591-54.094,6.242-81.092,6.762    c-27.021,0.52-54.094-1.041-81.536-5.92c-18.973,2.898-34.578,6.713-45.278,11.121c-9.411,3.863-14.736,7.9-14.712,11.74    c0.024,6.935,15.331,13.622,40.001,18.773c25.932,5.449,61.748,8.719,101.277,8.521H256.149z M255.951,233.164    c25.957-0.495,51.939-2.998,78.218-6.415l-0.149-28.138c-25.437,4.113-51.072,6.738-77.104,6.813    c-26.056,0.074-52.484-2.378-79.506-8.322l0.149,30.588C203.912,232.223,229.944,233.684,255.951,233.164z M177.361,190.859    c27.071,6.094,53.523,8.57,79.555,8.496c25.958-0.074,51.568-2.725,77.079-6.91l-0.149-30.986    c-10.551,2.65-21.72,4.806-33.363,6.391c-12.605,1.734-25.831,2.773-39.455,3.071c-15.728,0.322-30.959-0.371-45.4-1.981    c-13.522-1.51-26.402-3.814-38.415-6.811L177.361,190.859z M216.297,162.896c14.242,1.584,29.226,2.278,44.607,1.957    c13.325-0.273,26.328-1.313,38.763-3.021c11.938-1.611,23.38-3.865,34.13-6.639l-0.52-106.678v-0.271l-0.024-0.298v-0.298    l-0.024-0.271V47.08l-0.026-0.298l-0.024-0.272l-0.025-0.297l-0.049-0.272l-0.024-0.272l-0.049-0.298l-0.052-0.272l-0.023-0.272    l-0.05-0.298l-0.073-0.271l-0.051-0.272l-0.049-0.272l-0.074-0.272l-0.049-0.272l-0.076-0.272l-0.073-0.272l-0.073-0.272    l-0.101-0.272l-0.073-0.248l-0.076-0.271l-0.098-0.273l-0.099-0.247l-0.101-0.272l-0.098-0.248l-0.1-0.271l-0.099-0.248    l-0.101-0.248L331.32,39.5l-0.1-0.248l-0.123-0.271l-0.124-0.248l-0.125-0.223l-0.122-0.248l-0.125-0.248l-0.123-0.246    l-0.148-0.224l-0.123-0.248l-0.149-0.247l-0.149-0.223l-0.148-0.224l-0.148-0.248l-0.148-0.224l-0.149-0.223l-0.147-0.223    l-0.148-0.223l-0.174-0.223l-0.174-0.223l-0.148-0.223l-0.173-0.199l-0.174-0.223l-0.174-0.198l-0.174-0.223l-0.172-0.198    l-0.198-0.197l-0.174-0.199l-0.174-0.197l-0.198-0.199l-0.198-0.197l-0.174-0.199l-0.196-0.197l-0.198-0.174l-0.198-0.197    l-0.198-0.174l-0.223-0.174l-0.199-0.197l-0.197-0.174l-0.223-0.174l-0.199-0.173l-0.223-0.173l-0.223-0.149l-0.223-0.173    l-0.199-0.148l-0.247-0.174l-0.198-0.148l-0.247-0.148l-0.224-0.149l-0.223-0.148l-0.223-0.147l-0.249-0.15l-0.223-0.147    l-0.247-0.124l-0.248-0.148l-0.223-0.125l-0.248-0.123l-0.247-0.123l-0.247-0.125l-0.496-0.248l-0.248-0.098l-0.494-0.225    l-0.272-0.098l-0.497-0.198l-0.52-0.198l-0.271-0.1l-0.273-0.074l-0.52-0.173l-0.272-0.075l-0.273-0.074l-0.272-0.073    l-0.271-0.075l-0.271-0.049l-0.274-0.05l-0.272-0.075l-0.271-0.049l-0.271-0.05l-0.299-0.049l-0.271-0.05l-0.272-0.025    l-0.298-0.049l-0.272-0.025l-0.296-0.024l-0.274-0.024l-0.296-0.025l-0.272-0.023l-0.298-0.025h-0.297h-0.272h-0.298h-0.297    l-111.285,0.545h-0.296h-0.298l-0.272,0.025h-0.296l-0.298,0.023l-0.272,0.025l-0.297,0.024l-0.272,0.025l-0.298,0.024    l-0.272,0.049l-0.298,0.025l-0.272,0.049l-0.272,0.05l-0.272,0.05l-0.298,0.049l-0.272,0.051l-0.272,0.073l-0.272,0.05    l-0.273,0.075l-0.272,0.073l-0.272,0.074l-0.274,0.075l-0.248,0.073l-0.272,0.1l-0.272,0.074l-0.247,0.1l-0.274,0.074l-0.52,0.197    l-0.247,0.1l-0.272,0.125l-0.25,0.098l-0.247,0.1l-0.248,0.123l-0.248,0.125l-1.239,0.619l-0.223,0.124l-0.248,0.147l-0.223,0.148    l-0.47,0.273l-0.247,0.148l-0.223,0.148l-0.446,0.322l-0.225,0.148l-0.223,0.174l-0.223,0.148l-0.199,0.174l-0.223,0.172    l-0.223,0.174l-0.197,0.174l-0.198,0.174l-0.223,0.174l-0.198,0.172l-0.199,0.199l-0.198,0.174l-0.198,0.197l-0.198,0.174    l-0.198,0.197l-0.198,0.199l-0.174,0.197l-0.198,0.197l-0.172,0.199l-0.174,0.197l-0.198,0.224l-0.174,0.198l-0.173,0.198    l-0.174,0.223l-0.147,0.224l-0.174,0.197L181.1,35.76l-0.149,0.224l-0.172,0.223l-0.149,0.224l-0.149,0.223l-0.147,0.223    l-0.149,0.248l-0.149,0.223l-0.149,0.248l-0.123,0.223l-0.149,0.247l-0.123,0.223l-0.149,0.249l-0.125,0.247l-0.123,0.247    l-0.125,0.223l-0.123,0.273l-0.1,0.247l-0.123,0.249l-0.1,0.247l-0.123,0.247l-0.1,0.248l-0.098,0.272l-0.1,0.247l-0.098,0.273    l-0.1,0.247l-0.074,0.272l-0.1,0.248l-0.074,0.271l-0.098,0.273l-0.075,0.272l-0.074,0.272l-0.049,0.272l-0.075,0.272    l-0.074,0.272l-0.049,0.272l-0.074,0.272l-0.051,0.272l-0.049,0.272l-0.049,0.272l-0.049,0.297l-0.026,0.273l-0.049,0.271    l-0.024,0.297l-0.024,0.272l-0.025,0.298l-0.024,0.272l-0.024,0.296v0.298l-0.024,0.272v0.298v0.297v0.272v0.669l0.519,105.859    C189.348,158.958,202.501,161.36,216.297,162.896z M202.575,311.804c-4.111-4.087-9.758-6.614-16.026-6.614    c-6.166,0-11.789,2.478-15.851,6.49l-0.149,0.148c-4.087,4.087-6.638,9.758-6.638,16s2.551,11.914,6.638,16    c4.087,4.088,9.758,6.639,16,6.639s11.915-2.551,16.001-6.639c4.111-4.086,6.638-9.758,6.638-16    C209.188,321.563,206.662,315.915,202.575,311.804z M302.787,327.828c0,6.168,2.478,11.79,6.465,15.853l0.174,0.147    c4.086,4.088,9.732,6.639,15.999,6.639c6.241,0,11.89-2.551,16.002-6.639c4.087-4.086,6.612-9.758,6.612-16    s-2.525-11.913-6.612-16c-4.087-4.111-9.761-6.639-16.002-6.639c-6.267,0-11.913,2.527-16.024,6.614    C305.313,315.915,302.787,321.563,302.787,327.828z M225.783,464.228c15.826-10.056,27.046-25.685,27.17-44.607    c0.025-3.394-0.421-6.861-1.263-10.254c-1.957-7.852-6.117-15.208-11.617-20.608c-5.35-5.25-12.013-8.644-19.122-8.692    c-1.957,0-3.962,0.223-5.994,0.742c-12.285,3.071-22.241,18.279-31.654,32.646c-7.9,12.086-15.454,23.604-24.421,28.186    c-10.923,5.573-22.936,1.188-37.871-23.728c3.617,28.731,18.007,45.672,36.038,53.425c8.521,3.666,17.882,5.3,27.271,5.177    c9.437-0.1,18.972-2.006,27.79-5.424c4.582-1.759,8.967-3.938,13.053-6.465L225.783,464.228z" style="fill-rule:evenodd;clip-rule:evenodd;" id="svg_2" fill="#cccccc"/></g></g><g id="Layer_1"/></g></svg>