<svg xmlns="http://www.w3.org/2000/svg" width="31.111116907421774" height="31.239321701224526"><rect id="backgroundrect" width="100%" height="100%" x="0" y="0" fill="none" stroke="none" class="" style=""/><defs><style>.cls-1{fill:none;}</style></defs><title/><g class="currentLayer" style=""><title>Layer 1</title><g data-name="Layer 2" id="Layer_2" class="" fill-opacity="1" fill="#ff0000"><path d="M16,19a1,1,0,0,1-1-.76l-1.51-6.06A2.5,2.5,0,0,1,14,10a2.56,2.56,0,0,1,4,0,2.5,2.5,0,0,1,.46,2.19L17,18.24A1,1,0,0,1,16,19Zm0-8a.54.54,0,0,0-.44.22.52.52,0,0,0-.1.48L16,13.88l.54-2.18a.52.52,0,0,0-.1-.48A.54.54,0,0,0,16,11Z" id="svg_1" fill="#ff0000"/><circle cx="16" cy="21.5" r="1.5" id="svg_2" fill="#ff0000"/><path d="M16,29A13,13,0,1,1,29,16,13,13,0,0,1,16,29ZM16,5A11,11,0,1,0,27,16,11,11,0,0,0,16,5Z" id="svg_3" fill="#ff0000"/></g><g id="frame" class=""><rect class="cls-1" height="32" width="32" id="svg_4" y="0.8547019958496094" x="0"/></g></g></svg>