<svg xmlns="http://www.w3.org/2000/svg" xmlns:xlink="http://www.w3.org/1999/xlink" style="enable-background:new 0 0 1024 1024;" version="1.1" xml:space="preserve" width="1024" height="1024"><rect id="backgroundrect" width="100%" height="100%" x="0" y="0" fill="none" stroke="none"/><g class="currentLayer" style=""><title>Layer 1</title><g id="XMLID_27_" class="selected" fill-opacity="1" fill="#cccccc"><path d="M908.5,194l-11.2,10.6l-11.5,10.9L510.5,572.8L137.9,215.6l-11.4-10.9l-11.1-10.6   c10.6-7.3,23.3-11.6,37.1-11.6h719C885.2,182.5,898,186.7,908.5,194z" id="XMLID_285_" fill="#cccccc"/><path d="M937,248v528c0,36.1-29.4,65.5-65.5,65.5h-719c-36.1,0-65.5-29.4-65.5-65.5V248c0-7.7,1.3-15.2,3.8-22.1   l12.2,11.7L117,251l393.5,377.1L907,250.7l13.9-13.2l12.2-11.6C935.6,232.7,937,240.2,937,248z" id="XMLID_281_" fill="#cccccc"/></g><g id="XMLID_1_"/><g id="XMLID_2_"/><g id="XMLID_3_"/><g id="XMLID_4_"/><g id="XMLID_5_"/></g></svg>