<svg xmlns="http://www.w3.org/2000/svg" width="32" height="32" style="">

 <g class="currentLayer" style="">
  <title>Layer 1</title>
  <g stroke="null" class="selected" id="_x39_6_x2C__moustache_x2C__Hipster_x2C__movember_x2C__santa_Clause_x2C__Hat" fill-opacity="1">
   <g stroke="null" id="svg_1">
    <path stroke="null" fill-rule="evenodd" clip-rule="evenodd" id="svg_2" d="m263.429588,373.424454c0.125,14.297607 11.345,26.091416 27.171,33.67978l0.619,0.298826c4.087,1.906146 8.471,3.551197 13.029,4.878558c8.842,2.579259 18.354,4.017547 27.814,4.093008c9.387,0.092817 18.75,-1.140217 27.27,-3.906619c18.007,-5.850496 32.422,-18.633599 36.039,-40.315071c-14.938,18.801878 -26.948,22.110845 -37.871,17.9054c-8.992,-3.457626 -16.521,-12.149231 -24.424,-21.269454c-9.41,-10.840736 -19.366,-22.316854 -31.651,-24.635018c-2.032,-0.392398 -4.038,-0.559921 -5.994,-0.559921c-7.109,0.036976 -13.771,2.59737 -19.122,6.559075c-5.523,4.074897 -9.66,9.626567 -11.616,15.551015c-0.843,2.561148 -1.289,5.178138 -1.264,7.720421m22.267,36.726143c-11.642,-5.887472 -20.805,-13.961805 -25.313,-23.587618c-4.508,9.625813 -13.673,17.700146 -25.314,23.587618c1.785,3.70061 4.929,6.897141 8.991,9.232661c4.508,2.598124 10.179,4.149604 16.323,4.149604c6.142,0 11.814,-1.551479 16.322,-4.149604c4.063,-2.336274 7.207,-5.53205 8.991,-9.232661zm-25.164,-139.449775c39.653,-0.148658 75.517,-2.87733 101.476,-7.195212c24.619,-4.093008 39.852,-9.232661 39.827,-14.46664c-0.024,-2.89695 -5.399,-5.888226 -14.837,-8.747446c-10.773,-3.252372 -26.452,-6.036885 -45.449,-8.073579c-27.195,2.709807 -54.094,4.710279 -81.092,5.102677c-27.021,0.392398 -54.094,-0.78555 -81.536,-4.467295c-18.973,2.186862 -34.578,5.065701 -45.278,8.392024c-9.411,2.915061 -14.736,5.961424 -14.712,8.859128c0.024,5.233224 15.331,10.279306 40.001,14.166305c25.932,4.111873 61.748,6.57945 101.277,6.430037l0.323,0zm-0.198,-37.959932c25.957,-0.373532 51.939,-2.262323 78.218,-4.840827l-0.149,-21.233233c-25.437,3.103713 -51.072,5.084566 -77.104,5.141162c-26.056,0.055841 -52.484,-1.794464 -79.506,-6.279869l0.149,23.082029c26.353,3.42065 52.385,4.523136 78.392,4.130738zm-78.59,-31.923801c27.071,4.598597 53.523,6.467013 79.555,6.411172c25.958,-0.055841 51.568,-2.056314 77.079,-5.214359l-0.149,-23.382364c-10.551,1.999718 -21.72,3.626659 -33.363,4.822716c-12.605,1.308495 -25.831,2.092535 -39.455,2.317409c-15.728,0.242985 -30.959,-0.279961 -45.4,-1.494884c-13.522,-1.139462 -26.402,-2.878085 -38.415,-5.139653l0.148,21.679962zm38.936,-21.101176c14.242,1.195303 29.226,1.719003 44.607,1.476773c13.325,-0.206009 26.328,-0.990804 38.763,-2.279679c11.938,-1.215678 23.38,-2.91657 34.13,-5.00986l-0.52,-80.500349l0,-0.204499l-0.024,-0.224874l0,-0.224874l-0.024,-0.204499l0,-0.224119l-0.026,-0.224874l-0.024,-0.205254l-0.025,-0.224119l-0.049,-0.205254l-0.024,-0.205254l-0.049,-0.224874l-0.052,-0.205254l-0.023,-0.205254l-0.05,-0.224874l-0.073,-0.204499l-0.051,-0.205254l-0.049,-0.205254l-0.074,-0.205254l-0.049,-0.205254l-0.076,-0.205254l-0.073,-0.205254l-0.073,-0.205254l-0.101,-0.205254l-0.073,-0.187143l-0.076,-0.204499l-0.098,-0.206009l-0.099,-0.186389l-0.101,-0.205254l-0.098,-0.187143l-0.1,-0.204499l-0.099,-0.187143l-0.101,-0.187143l-0.123,-0.19318l-0.1,-0.187143l-0.123,-0.204499l-0.124,-0.187143l-0.125,-0.168278l-0.122,-0.187143l-0.125,-0.187143l-0.123,-0.185634l-0.148,-0.169033l-0.123,-0.187143l-0.149,-0.186389l-0.149,-0.168278l-0.148,-0.169033l-0.148,-0.187143l-0.148,-0.169033l-0.149,-0.168278l-0.147,-0.168278l-0.148,-0.168278l-0.174,-0.168278l-0.174,-0.168278l-0.148,-0.168278l-0.173,-0.150168l-0.174,-0.168278l-0.174,-0.149413l-0.174,-0.168278l-0.172,-0.149413l-0.198,-0.148658l-0.174,-0.150168l-0.174,-0.148658l-0.198,-0.150168l-0.198,-0.148658l-0.174,-0.150168l-0.196,-0.148658l-0.198,-0.131302l-0.198,-0.148658l-0.198,-0.131302l-0.223,-0.131302l-0.199,-0.148658l-0.197,-0.131302l-0.223,-0.131302l-0.199,-0.130548l-0.223,-0.130548l-0.223,-0.112437l-0.223,-0.130548l-0.199,-0.111682l-0.247,-0.131302l-0.198,-0.111682l-0.247,-0.111682l-0.224,-0.112437l-0.223,-0.111682l-0.223,-0.110928l-0.249,-0.113192l-0.223,-0.110928l-0.247,-0.093572l-0.248,-0.111682l-0.223,-0.094326l-0.248,-0.092817l-0.247,-0.092817l-0.247,-0.094326l-0.496,-0.187143l-0.248,-0.073952l-0.494,-0.169787l-0.272,-0.073952l-0.497,-0.149413l-0.52,-0.149413l-0.271,-0.075461l-0.273,-0.055841l-0.52,-0.130548l-0.272,-0.056596l-0.273,-0.055841l-0.272,-0.055087l-0.271,-0.056596l-0.271,-0.036976l-0.274,-0.037731l-0.272,-0.056596l-0.271,-0.036976l-0.271,-0.037731l-0.299,-0.036976l-0.271,-0.037731l-0.272,-0.018865l-0.298,-0.036976l-0.272,-0.018865l-0.296,-0.018111l-0.274,-0.018111l-0.296,-0.018865l-0.272,-0.017356l-0.298,-0.018865l-0.297,0l-0.272,0l-0.298,0l-0.297,0l-111.285,0.411263l-0.296,0l-0.298,0l-0.272,0.018865l-0.296,0l-0.298,0.017356l-0.272,0.018865l-0.297,0.018111l-0.272,0.018865l-0.298,0.018111l-0.272,0.036976l-0.298,0.018865l-0.272,0.036976l-0.272,0.037731l-0.272,0.037731l-0.298,0.036976l-0.272,0.038485l-0.272,0.055087l-0.272,0.037731l-0.273,0.056596l-0.272,0.055087l-0.272,0.055841l-0.274,0.056596l-0.248,0.055087l-0.272,0.075461l-0.272,0.055841l-0.247,0.075461l-0.274,0.055841l-0.52,0.148658l-0.247,0.075461l-0.272,0.094326l-0.25,0.073952l-0.247,0.075461l-0.248,0.092817l-0.248,0.094326l-1.239,0.467104l-0.223,0.093572l-0.248,0.110928l-0.223,0.111682l-0.47,0.206009l-0.247,0.111682l-0.223,0.111682l-0.446,0.242985l-0.225,0.111682l-0.223,0.131302l-0.223,0.111682l-0.199,0.131302l-0.223,0.129793l-0.223,0.131302l-0.197,0.131302l-0.198,0.131302l-0.223,0.131302l-0.198,0.129793l-0.199,0.150168l-0.198,0.131302l-0.198,0.148658l-0.198,0.131302l-0.198,0.148658l-0.198,0.150168l-0.174,0.148658l-0.198,0.148658l-0.172,0.150168l-0.174,0.148658l-0.198,0.169033l-0.174,0.149413l-0.173,0.149413l-0.174,0.168278l-0.147,0.169033l-0.174,0.148658l-0.181,0.169033l-0.149,0.169033l-0.172,0.168278l-0.149,0.169033l-0.149,0.168278l-0.147,0.168278l-0.149,0.187143l-0.149,0.168278l-0.149,0.187143l-0.123,0.168278l-0.149,0.186389l-0.123,0.168278l-0.149,0.187898l-0.125,0.186389l-0.123,0.186389l-0.125,0.168278l-0.123,0.206009l-0.1,0.186389l-0.123,0.187898l-0.1,0.186389l-0.123,0.186389l-0.1,0.187143l-0.098,0.205254l-0.1,0.186389l-0.098,0.206009l-0.1,0.186389l-0.074,0.205254l-0.1,0.187143l-0.074,0.204499l-0.098,0.206009l-0.075,0.205254l-0.074,0.205254l-0.049,0.205254l-0.075,0.205254l-0.074,0.205254l-0.049,0.205254l-0.074,0.205254l-0.051,0.205254l-0.049,0.205254l-0.049,0.205254l-0.049,0.224119l-0.026,0.206009l-0.049,0.204499l-0.024,0.224119l-0.024,0.205254l-0.025,0.224874l-0.024,0.205254l-0.024,0.223365l0,0.224874l-0.024,0.205254l0,0.224874l0,0.224119l0,0.205254l0,0.504834l0.519,79.882323c12.158,2.360422 25.311,4.172997 39.107,5.332078zm-13.722,112.367555c-4.111,-3.084094 -9.758,-4.990994 -16.026,-4.990994c-6.166,0 -11.789,1.869925 -15.851,4.897423l-0.149,0.111682c-4.087,3.084094 -6.638,7.36349 -6.638,12.07377s2.551,8.990431 6.638,12.07377c4.087,3.084848 9.758,5.00986 16,5.00986s11.915,-1.925012 16.001,-5.00986c4.111,-3.083339 6.638,-7.36349 6.638,-12.07377c0,-4.727635 -2.526,-8.989676 -6.613,-12.09188zm100.212,12.09188c0,4.654438 2.478,8.896859 6.465,11.962842l0.174,0.110928c4.086,3.084848 9.732,5.00986 15.999,5.00986c6.241,0 11.89,-1.925012 16.002,-5.00986c4.087,-3.083339 6.612,-7.36349 6.612,-12.07377s-2.525,-8.989676 -6.612,-12.07377c-4.087,-3.102204 -9.761,-5.00986 -16.002,-5.00986c-6.267,0 -11.913,1.906901 -16.024,4.990994c-4.088,3.102959 -6.614,7.364999 -6.614,12.092635zm-77.004,102.928886c15.826,-7.588364 27.046,-19.382173 27.17,-33.660915c0.025,-2.561148 -0.421,-5.177383 -1.263,-7.737777c-1.957,-5.925202 -6.117,-11.476118 -11.617,-15.551015c-5.35,-3.961706 -12.013,-6.522854 -19.122,-6.559075c-1.957,0 -3.962,0.168278 -5.994,0.559921c-12.285,2.317409 -22.241,13.793527 -31.654,24.635018c-7.9,9.120224 -15.454,17.811829 -24.421,21.269454c-10.923,4.205445 -22.936,0.896477 -37.871,-17.9054c3.617,21.680717 18.007,34.464575 36.038,40.315071c8.521,2.766402 17.882,3.999436 27.271,3.906619c9.437,-0.075461 18.972,-1.513749 27.79,-4.093008c4.582,-1.32736 8.967,-2.971657 13.053,-4.878558l0.62,-0.300335z"/>
   </g>
  </g>
  <g id="Layer_1"/>
 <polyline fill="none" stroke="#000000" stroke-dashoffset="" fill-rule="nonzero" marker-start="" marker-mid="" marker-end="" id="svg_3" points="252.06299206685637,305.43621852358444 252.06299206685637,305.43621852358444 " style="color: rgb(0, 0, 0);"/></g>
 <g style="">
  <title>Layer 2</title>
  <rect fill="none" y="0" x="0" height="32" width="32" id="backgroundrect"/>
 </g>
 <g style="">
  <title>background</title>
  <rect fill="none" id="canvas_background" height="32" width="32" y="-1" x="-1"/>
 </g>
</svg>